<?xml version="1.0" encoding="UTF-8"?>
<svg xmlns="http://www.w3.org/2000/svg" width="300" height="300" viewBox="0 0 300 300">
  <title>radioso icon</title>
  <g>
    <path d="M0 0 C5.94 0 11.88 0 18 0 C18 3.3 18 6.6 18 10 C21.3 10 24.6 10 28 10 C28 13.3 28 16.6 28 20 C31.3 20 34.6 20 38 20 C38 23.3 38 26.6 38 30 C41.3 30 44.6 30 48 30 C48 33.3 48 36.6 48 40 C51.3 40 54.6 40 58 40 C58 45.94 58 51.88 58 58 C52.06 58 46.12 58 40 58 C40 54.7 40 51.4 40 48 C36.7 48 33.4 48 30 48 C30 44.7 30 41.4 30 38 C26.7 38 23.4 38 20 38 C20 34.7 20 31.4 20 28 C16.7 28 13.4 28 10 28 C10 24.7 10 21.4 10 18 C6.7 18 3.4 18 0 18 C0 12.06 0 6.12 0 0 Z " fill="#FFC720" transform="translate(191,191)"/>
    <path d="M0 0 C5.94 0 11.88 0 18 0 C18 5.94 18 11.88 18 18 C14.7 18 11.4 18 8 18 C8 21.3 8 24.6 8 28 C4.7 28 1.4 28 -2 28 C-2 31.3 -2 34.6 -2 38 C-5.3 38 -8.6 38 -12 38 C-12 41.3 -12 44.6 -12 48 C-15.3 48 -18.6 48 -22 48 C-22 51.3 -22 54.6 -22 58 C-27.94 58 -33.88 58 -40 58 C-40 52.06 -40 46.12 -40 40 C-36.7 40 -33.4 40 -30 40 C-30 36.7 -30 33.4 -30 30 C-26.7 30 -23.4 30 -20 30 C-20 26.7 -20 23.4 -20 20 C-16.7 20 -13.4 20 -10 20 C-10 16.7 -10 13.4 -10 10 C-6.7 10 -3.4 10 0 10 C0 6.7 0 3.4 0 0 Z " fill="#FFC720" transform="translate(91,191)"/>
    <path d="M0 0 C5.94 0 11.88 0 18 0 C18 5.94 18 11.88 18 18 C14.7 18 11.4 18 8 18 C8 21.3 8 24.6 8 28 C4.7 28 1.4 28 -2 28 C-2 31.3 -2 34.6 -2 38 C-5.3 38 -8.6 38 -12 38 C-12 41.3 -12 44.6 -12 48 C-15.3 48 -18.6 48 -22 48 C-22 51.3 -22 54.6 -22 58 C-27.94 58 -33.88 58 -40 58 C-40 52.06 -40 46.12 -40 40 C-36.7 40 -33.4 40 -30 40 C-30 36.7 -30 33.4 -30 30 C-26.7 30 -23.4 30 -20 30 C-20 26.7 -20 23.4 -20 20 C-16.7 20 -13.4 20 -10 20 C-10 16.7 -10 13.4 -10 10 C-6.7 10 -3.4 10 0 10 C0 6.7 0 3.4 0 0 Z " fill="#FFC720" transform="translate(231,51)"/>
    <path d="M0 0 C5.94 0 11.88 0 18 0 C18 3.3 18 6.6 18 10 C21.3 10 24.6 10 28 10 C28 13.3 28 16.6 28 20 C31.3 20 34.6 20 38 20 C38 23.3 38 26.6 38 30 C41.3 30 44.6 30 48 30 C48 33.3 48 36.6 48 40 C51.3 40 54.6 40 58 40 C58 45.94 58 51.88 58 58 C52.06 58 46.12 58 40 58 C40 54.7 40 51.4 40 48 C36.7 48 33.4 48 30 48 C30 44.7 30 41.4 30 38 C26.7 38 23.4 38 20 38 C20 34.7 20 31.4 20 28 C16.7 28 13.4 28 10 28 C10 24.7 10 21.4 10 18 C6.7 18 3.4 18 0 18 C0 12.06 0 6.12 0 0 Z " fill="#FFC720" transform="translate(51,51)"/>
    <path d="M0 0 C5.94 0 11.88 0 18 0 C18 3.3 18 6.6 18 10 C21.3 10 24.6 10 28 10 C28 15.94 28 21.88 28 28 C24.7 28 21.4 28 18 28 C18 31.3 18 34.6 18 38 C12.06 38 6.12 38 0 38 C0 34.7 0 31.4 0 28 C-3.3 28 -6.6 28 -10 28 C-10 22.06 -10 16.12 -10 10 C-6.7 10 -3.4 10 0 10 C0 6.7 0 3.4 0 0 Z M8 18 C8 18.66 8 19.32 8 20 C8.66 20 9.32 20 10 20 C10 19.34 10 18.68 10 18 C9.34 18 8.68 18 8 18 Z " fill="#FFC720" transform="translate(251,131)"/>
    <path d="M0 0 C5.94 0 11.88 0 18 0 C18 5.94 18 11.88 18 18 C12.06 18 6.12 18 0 18 C0 12.06 0 6.12 0 0 Z " fill="#FFC720" transform="translate(141,261)"/>
    <path d="M0 0 C5.94 0 11.88 0 18 0 C18 5.94 18 11.88 18 18 C12.06 18 6.12 18 0 18 C0 12.06 0 6.12 0 0 Z " fill="#FFC720" transform="translate(141,241)"/>
    <path d="M0 0 C5.94 0 11.88 0 18 0 C18 5.94 18 11.88 18 18 C12.06 18 6.12 18 0 18 C0 12.06 0 6.12 0 0 Z " fill="#FFC720" transform="translate(141,221)"/>
    <path d="M0 0 C5.94 0 11.88 0 18 0 C18 5.94 18 11.88 18 18 C12.06 18 6.12 18 0 18 C0 12.06 0 6.12 0 0 Z " fill="#FFC720" transform="translate(141,201)"/>
    <path d="M0 0 C5.94 0 11.88 0 18 0 C18 5.94 18 11.88 18 18 C12.06 18 6.12 18 0 18 C0 12.06 0 6.12 0 0 Z " fill="#FFC720" transform="translate(161,181)"/>
    <path d="M0 0 C5.94 0 11.88 0 18 0 C18 5.94 18 11.88 18 18 C12.06 18 6.12 18 0 18 C0 12.06 0 6.12 0 0 Z " fill="#FFC720" transform="translate(141,181)"/>
    <path d="M0 0 C5.94 0 11.88 0 18 0 C18 5.94 18 11.88 18 18 C12.06 18 6.12 18 0 18 C0 12.06 0 6.12 0 0 Z " fill="#FFC720" transform="translate(121,181)"/>
    <path d="M0 0 C5.94 0 11.88 0 18 0 C18 5.94 18 11.88 18 18 C12.06 18 6.12 18 0 18 C0 12.06 0 6.12 0 0 Z " fill="#FFC720" transform="translate(181,161)"/>
    <path d="M0 0 C5.94 0 11.88 0 18 0 C18 5.94 18 11.88 18 18 C12.06 18 6.12 18 0 18 C0 12.06 0 6.12 0 0 Z " fill="#FFC720" transform="translate(161,161)"/>
    <path d="M0 0 C5.94 0 11.88 0 18 0 C18 5.94 18 11.88 18 18 C12.06 18 6.12 18 0 18 C0 12.06 0 6.12 0 0 Z " fill="#FFC720" transform="translate(141,161)"/>
    <path d="M0 0 C5.94 0 11.88 0 18 0 C18 5.94 18 11.88 18 18 C12.06 18 6.12 18 0 18 C0 12.06 0 6.12 0 0 Z " fill="#FFC720" transform="translate(121,161)"/>
    <path d="M0 0 C5.94 0 11.88 0 18 0 C18 5.94 18 11.88 18 18 C12.06 18 6.12 18 0 18 C0 12.06 0 6.12 0 0 Z " fill="#FFC720" transform="translate(101,161)"/>
    <path d="M0 0 C5.94 0 11.88 0 18 0 C18 5.94 18 11.88 18 18 C12.06 18 6.12 18 0 18 C0 12.06 0 6.12 0 0 Z " fill="#FFC720" transform="translate(221,141)"/>
    <path d="M0 0 C5.94 0 11.88 0 18 0 C18 5.94 18 11.88 18 18 C12.06 18 6.12 18 0 18 C0 12.06 0 6.12 0 0 Z " fill="#FFC720" transform="translate(201,141)"/>
    <path d="M0 0 C5.94 0 11.88 0 18 0 C18 5.94 18 11.88 18 18 C12.06 18 6.12 18 0 18 C0 12.06 0 6.12 0 0 Z " fill="#FFC720" transform="translate(181,141)"/>
    <path d="M0 0 C5.94 0 11.88 0 18 0 C18 5.94 18 11.88 18 18 C12.06 18 6.12 18 0 18 C0 12.06 0 6.12 0 0 Z " fill="#FFC720" transform="translate(161,141)"/>
    <path d="M0 0 C5.94 0 11.88 0 18 0 C18 5.94 18 11.88 18 18 C12.06 18 6.12 18 0 18 C0 12.06 0 6.12 0 0 Z " fill="#FFC720" transform="translate(141,141)"/>
    <path d="M0 0 C5.94 0 11.88 0 18 0 C18 5.94 18 11.88 18 18 C12.06 18 6.12 18 0 18 C0 12.06 0 6.12 0 0 Z " fill="#FFC720" transform="translate(121,141)"/>
    <path d="M0 0 C5.94 0 11.88 0 18 0 C18 5.94 18 11.88 18 18 C12.06 18 6.12 18 0 18 C0 12.06 0 6.12 0 0 Z " fill="#FFC720" transform="translate(101,141)"/>
    <path d="M0 0 C5.94 0 11.88 0 18 0 C18 5.94 18 11.88 18 18 C12.06 18 6.12 18 0 18 C0 12.06 0 6.12 0 0 Z " fill="#FFC720" transform="translate(81,141)"/>
    <path d="M0 0 C5.94 0 11.88 0 18 0 C18 5.94 18 11.88 18 18 C12.06 18 6.12 18 0 18 C0 12.06 0 6.12 0 0 Z " fill="#FFC720" transform="translate(61,141)"/>
    <path d="M0 0 C5.94 0 11.88 0 18 0 C18 5.94 18 11.88 18 18 C12.06 18 6.12 18 0 18 C0 12.06 0 6.12 0 0 Z " fill="#FFC720" transform="translate(41,141)"/>
    <path d="M0 0 C5.94 0 11.88 0 18 0 C18 5.94 18 11.88 18 18 C12.06 18 6.12 18 0 18 C0 12.06 0 6.12 0 0 Z " fill="#FFC720" transform="translate(21,141)"/>
    <path d="M0 0 C5.94 0 11.88 0 18 0 C18 5.94 18 11.88 18 18 C12.06 18 6.12 18 0 18 C0 12.06 0 6.12 0 0 Z " fill="#FFC720" transform="translate(181,121)"/>
    <path d="M0 0 C5.94 0 11.88 0 18 0 C18 5.94 18 11.88 18 18 C12.06 18 6.12 18 0 18 C0 12.06 0 6.12 0 0 Z " fill="#FFC720" transform="translate(161,121)"/>
    <path d="M0 0 C5.94 0 11.88 0 18 0 C18 5.94 18 11.88 18 18 C12.06 18 6.12 18 0 18 C0 12.06 0 6.12 0 0 Z " fill="#FFC720" transform="translate(141,121)"/>
    <path d="M0 0 C5.94 0 11.88 0 18 0 C18 5.94 18 11.88 18 18 C12.06 18 6.12 18 0 18 C0 12.06 0 6.12 0 0 Z " fill="#FFC720" transform="translate(121,121)"/>
    <path d="M0 0 C5.94 0 11.88 0 18 0 C18 5.94 18 11.88 18 18 C12.06 18 6.12 18 0 18 C0 12.06 0 6.12 0 0 Z " fill="#FFC720" transform="translate(101,121)"/>
    <path d="M0 0 C5.94 0 11.88 0 18 0 C18 5.94 18 11.88 18 18 C12.06 18 6.12 18 0 18 C0 12.06 0 6.12 0 0 Z " fill="#FFC720" transform="translate(161,101)"/>
    <path d="M0 0 C5.94 0 11.88 0 18 0 C18 5.94 18 11.88 18 18 C12.06 18 6.12 18 0 18 C0 12.06 0 6.12 0 0 Z " fill="#FFC720" transform="translate(141,101)"/>
    <path d="M0 0 C5.94 0 11.88 0 18 0 C18 5.94 18 11.88 18 18 C12.06 18 6.12 18 0 18 C0 12.06 0 6.12 0 0 Z " fill="#FFC720" transform="translate(121,101)"/>
    <path d="M0 0 C5.94 0 11.88 0 18 0 C18 5.94 18 11.88 18 18 C12.06 18 6.12 18 0 18 C0 12.06 0 6.12 0 0 Z " fill="#FFC720" transform="translate(141,81)"/>
    <path d="M0 0 C5.94 0 11.88 0 18 0 C18 5.94 18 11.88 18 18 C12.06 18 6.12 18 0 18 C0 12.06 0 6.12 0 0 Z " fill="#FFC720" transform="translate(141,61)"/>
    <path d="M0 0 C5.94 0 11.88 0 18 0 C18 5.94 18 11.88 18 18 C12.06 18 6.12 18 0 18 C0 12.06 0 6.12 0 0 Z " fill="#FFC720" transform="translate(141,41)"/>
    <path d="M0 0 C5.94 0 11.88 0 18 0 C18 5.94 18 11.88 18 18 C12.06 18 6.12 18 0 18 C0 12.06 0 6.12 0 0 Z " fill="#FFC720" transform="translate(141,21)"/>
  </g>
</svg>
