<?xml version="1.0" encoding="UTF-8"?>
<svg xmlns="http://www.w3.org/2000/svg" width="704" height="150" viewBox="0 0 7037 1505">
  <title>radioso wordmark</title>
  <g transform="translate(-75, 1481) scale(1, -1)">
    <g fill="#14181F"><path d="M411 526Q411 669 453.0 767.0Q495 865 562.0 915.0Q629 965 705 965Q798 965 849.0 913.0Q900 861 900 766Q900 687 866.5 647.5Q833 608 780 608Q727 608 698.5 637.0Q670 666 670 718V753Q669 786 654.5 802.0Q640 818 606 818Q566 818 529.5 786.5Q493 755 470.0 691.0Q447 627 447 528ZM433 901 447 670V149Q447 122 458.0 109.0Q469 96 498 91L586 78Q608 75 619.0 65.0Q630 55 630 38Q630 20 617.0 10.0Q604 0 579 0H134Q108 0 96.0 10.0Q84 20 84 37Q84 51 92.5 60.5Q101 70 120 76L163 86Q182 92 191.5 105.5Q201 119 201 148V744Q201 768 193.0 778.5Q185 789 168 792L108 795Q90 799 82.5 807.0Q75 815 75 828Q75 842 84.5 851.5Q94 861 118 870L291 932Q335 948 356.0 953.5Q377 959 389 959Q409 959 419.5 945.5Q430 932 433 901Z" transform="translate(0,0)"/><path d="M691 125V145L675 150V734Q675 813 635.5 855.5Q596 898 524 898Q456 898 421.0 869.5Q386 841 386 801V717Q386 663 350.5 634.0Q315 605 251 605Q195 605 166.0 632.0Q137 659 137 706Q137 769 187.0 828.0Q237 887 333.5 925.5Q430 964 569 964Q746 964 832.5 890.0Q919 816 919 692V161Q919 131 931.0 116.5Q943 102 964 102Q988 102 998.5 113.0Q1009 124 1017 135Q1023 141 1028.5 145.5Q1034 150 1042 150Q1053 150 1058.5 142.0Q1064 134 1064 120Q1064 89 1042.5 55.5Q1021 22 978.5 -1.0Q936 -24 873 -24Q789 -24 740.0 15.0Q691 54 691 125ZM94 209Q94 330 202.5 406.5Q311 483 505 483Q572 483 626.5 471.0Q681 459 722 440L703 381Q665 397 625.5 407.5Q586 418 539 418Q449 418 397.5 373.0Q346 328 346 249Q346 172 389.0 130.5Q432 89 499 89Q559 89 614.5 116.5Q670 144 709 194L731 142Q673 63 580.5 19.5Q488 -24 384 -24Q255 -24 174.5 39.5Q94 103 94 209Z" transform="translate(930,0)"/><path d="M808 165 800 171V1268Q800 1292 792.5 1302.5Q785 1313 768 1316L708 1319Q690 1323 682.5 1331.0Q675 1339 675 1352Q675 1366 684.0 1375.5Q693 1385 717 1394L894 1457Q928 1470 949.5 1475.5Q971 1481 989 1481Q1018 1481 1032.0 1465.5Q1046 1450 1046 1423V149Q1046 120 1055.5 106.0Q1065 92 1084 86L1125 76Q1144 70 1153.0 60.5Q1162 51 1162 37Q1162 20 1149.5 10.0Q1137 0 1111 0H918Q869 0 838.5 29.5Q808 59 808 110ZM76 447Q76 606 139.0 722.0Q202 838 309.5 901.5Q417 965 549 965Q668 965 760.5 908.0Q853 851 911 744L852 690Q802 776 735.5 819.5Q669 863 592 863Q518 863 459.5 821.0Q401 779 367.0 693.0Q333 607 333 474Q333 350 366.0 267.5Q399 185 455.5 143.5Q512 102 585 102Q662 102 729.5 147.5Q797 193 853 284L892 230Q814 110 711.5 43.0Q609 -24 487 -24Q368 -24 275.5 36.5Q183 97 129.5 203.0Q76 309 76 447Z" transform="translate(2032,0)"/><path d="M447 901V149Q447 120 456.5 106.0Q466 92 484 86L526 76Q544 70 553.0 60.5Q562 51 562 37Q562 20 550.0 10.0Q538 0 512 0H134Q108 0 96.0 10.0Q84 20 84 37Q84 51 92.5 60.5Q101 70 120 76L163 86Q182 92 191.5 105.5Q201 119 201 148V746Q201 770 193.0 780.5Q185 791 168 794L108 797Q90 800 82.5 808.5Q75 817 75 829Q75 844 84.0 853.5Q93 863 118 871L294 935Q330 948 351.0 953.5Q372 959 388 959Q417 959 432.0 943.0Q447 927 447 901Z" transform="translate(3259,0)"/><path d="M593 965Q744 965 858.5 902.0Q973 839 1037.5 727.0Q1102 615 1102 469Q1102 328 1036.0 216.5Q970 105 854.0 40.5Q738 -24 585 -24Q434 -24 320.0 39.5Q206 103 141.5 215.0Q77 327 77 472Q77 615 142.5 726.0Q208 837 324.0 901.0Q440 965 593 965ZM664 71Q740 82 786.5 136.5Q833 191 847.5 284.5Q862 378 839 508Q817 637 770.0 722.0Q723 807 657.5 844.5Q592 882 514 870Q439 858 392.0 804.0Q345 750 331.0 656.5Q317 563 339 433Q361 304 408.0 219.0Q455 134 520.5 96.5Q586 59 664 71Z" transform="translate(3877,0)"/><path d="M503 58Q575 58 615.5 95.0Q656 132 656 189Q656 224 639.5 253.0Q623 282 578.5 306.0Q534 330 451 350Q305 382 223.5 429.0Q142 476 110.0 537.5Q78 599 78 672Q78 805 172.5 885.0Q267 965 445 965Q510 965 551.5 954.0Q593 943 620.0 931.5Q647 920 668 920Q689 920 700.0 931.5Q711 943 721.5 954.0Q732 965 752 965Q766 965 776.5 956.0Q787 947 795 923L864 717Q875 686 871.0 666.0Q867 646 846 638Q825 630 810.0 637.5Q795 645 781 666Q737 747 685.0 794.5Q633 842 576.0 862.0Q519 882 458 882Q368 882 323.0 845.0Q278 808 278 745Q278 708 297.0 677.5Q316 647 367.5 621.5Q419 596 514 573Q640 544 714.0 501.0Q788 458 820.5 397.5Q853 337 853 256Q853 173 811.0 109.5Q769 46 693.0 11.0Q617 -24 516 -24Q453 -24 414.5 -11.5Q376 1 350.5 13.5Q325 26 301 26Q280 26 267.0 13.5Q254 1 242.0 -11.5Q230 -24 213 -24Q199 -24 190.0 -14.5Q181 -5 176 18L135 213Q128 251 132.0 269.0Q136 287 155 295Q175 303 190.0 293.0Q205 283 221 256Q280 150 353.0 104.0Q426 58 503 58Z" transform="translate(5056,0)"/><path d="M593 965Q744 965 858.5 902.0Q973 839 1037.5 727.0Q1102 615 1102 469Q1102 328 1036.0 216.5Q970 105 854.0 40.5Q738 -24 585 -24Q434 -24 320.0 39.5Q206 103 141.5 215.0Q77 327 77 472Q77 615 142.5 726.0Q208 837 324.0 901.0Q440 965 593 965ZM664 71Q740 82 786.5 136.5Q833 191 847.5 284.5Q862 378 839 508Q817 637 770.0 722.0Q723 807 657.5 844.5Q592 882 514 870Q439 858 392.0 804.0Q345 750 331.0 656.5Q317 563 339 433Q361 304 408.0 219.0Q455 134 520.5 96.5Q586 59 664 71Z" transform="translate(6010,0)"/></g>
    <rect x="3400.0" y="1104.5" width="323.0" height="323.0" fill="#FFC720"/>
  </g>
</svg>
